<svg width="112" height="58" viewBox="0 0 112 58" fill="none" xmlns="http://www.w3.org/2000/svg">
    <g filter="url(#filter0_d_64_2)">
        <path d="M108 25C108 38.8071 96.8745 50 83.1504 50C69.4264 50 58.3009 38.8071 58.3009 25C58.3009 11.1929 69.4264 0 83.1504 0C96.8745 0 108 11.1929 108 25Z" fill="#1DA5DC"/>
        <path d="M28.8496 0H83.1504V50H28.8496V0Z" fill="#1DA5DC"/>
        <path d="M53.6991 25C53.6991 38.8071 42.5736 50 28.8496 50C15.1255 50 4 38.8071 4 25C4 11.1929 15.1255 0 28.8496 0C42.5736 0 53.6991 11.1929 53.6991 25Z" fill="white"/>
        <path d="M28.8496 0H58.3009V50H28.8496V0Z" fill="white"/>
        <path d="M4 25C4 11.1929 15.1255 0 28.8496 0H83.1504C96.8745 0 108 11.1929 108 25C108 38.8071 96.8745 50 83.1504 50H28.8496C15.1255 50 4 38.8071 4 25Z" fill="url(#paint0_linear_64_2)" style="mix-blend-mode:multiply"/>
        <path d="M46.9025 36.8906C45.5843 38.0311 44.1079 38.9064 42.4733 39.5164C40.8387 40.1265 39.1448 40.4315 37.3916 40.4315C36.047 40.4315 34.7486 40.2525 33.4963 39.8944C32.2571 39.5496 31.0905 39.0589 29.9964 38.4223C28.9155 37.7725 27.9268 36.9966 27.0304 36.0948C26.134 35.193 25.3629 34.1984 24.717 33.1109C24.0842 32.0102 23.5899 30.8365 23.234 29.5898C22.8912 28.33 22.7199 27.0237 22.7199 25.6709C22.7199 24.3182 22.8912 23.0119 23.234 21.752C23.5899 20.4921 24.0842 19.3185 24.717 18.231C25.3629 17.1302 26.134 16.129 27.0304 15.2271C27.9268 14.3253 28.9155 13.5561 29.9964 12.9196C31.0905 12.2697 32.2571 11.7724 33.4963 11.4276C34.7486 11.0695 36.047 10.8905 37.3916 10.8905C39.1448 10.8905 40.8387 11.1955 42.4733 11.8056C44.1079 12.4023 45.5843 13.2776 46.9025 14.4314L43.897 19.4047C43.0665 18.5028 42.0844 17.8132 40.9508 17.3358C39.8171 16.8451 38.6307 16.5998 37.3916 16.5998C36.1393 16.5998 34.9661 16.8385 33.872 17.3159C32.7778 17.7933 31.8221 18.4432 31.0048 19.2654C30.1875 20.0744 29.5416 21.0359 29.0671 22.1499C28.5925 23.2506 28.3552 24.4243 28.3552 25.6709C28.3552 26.9176 28.5925 28.0912 29.0671 29.192C29.5416 30.2795 30.1875 31.2343 31.0048 32.0566C31.8221 32.8788 32.7778 33.5286 33.872 34.0061C34.9661 34.4835 36.1393 34.7222 37.3916 34.7222C38.6307 34.7222 39.8171 34.4835 40.9508 34.0061C42.0844 33.5154 43.0665 32.8191 43.897 31.9173L46.9025 36.8906Z" fill="#0B4056"/>
        <path d="M55.8796 39.8148H50.2046V11.2883H55.8796V39.8148Z" fill="#0B4056"/>
        <path d="M89.2963 39.8148H83.6412V19.4444C83.6412 19.0466 83.5621 18.6753 83.4039 18.3304C83.2589 17.9856 83.0546 17.6872 82.7909 17.4353C82.5405 17.17 82.2439 16.9645 81.9011 16.8186C81.5584 16.6727 81.1893 16.5998 80.7938 16.5998C80.3984 16.5998 80.0293 16.6727 79.6865 16.8186C79.3438 16.9645 79.0406 17.17 78.777 17.4353C78.5265 17.6872 78.3288 17.9856 78.1838 18.3304C78.0388 18.6753 77.9663 19.0466 77.9663 19.4444V39.8148H72.2913V19.4444C72.2913 19.0466 72.2188 18.6753 72.0738 18.3304C71.9288 17.9856 71.7245 17.6872 71.4609 17.4353C71.2104 17.17 70.9138 16.9645 70.5711 16.8186C70.2283 16.6727 69.8592 16.5998 69.4638 16.5998C69.0683 16.5998 68.6992 16.6727 68.3565 16.8186C68.0137 16.9645 67.7105 17.17 67.4469 17.4353C67.1964 17.6872 66.9987 17.9856 66.8537 18.3304C66.7087 18.6753 66.6362 19.0466 66.6362 19.4444V39.8148H60.9613V19.4444C60.9613 18.2641 61.1788 17.1568 61.6138 16.1223C62.062 15.0746 62.6684 14.1662 63.4329 13.397C64.2107 12.6145 65.1137 12.0045 66.1419 11.5668C67.1833 11.1159 68.2906 10.8905 69.4638 10.8905C70.5183 10.8905 71.5334 11.0828 72.5089 11.4674C73.4843 11.8387 74.3609 12.3825 75.1387 13.0986C75.9164 12.3825 76.7865 11.8387 77.7488 11.4674C78.7242 11.0828 79.7393 10.8905 80.7938 10.8905C81.967 10.8905 83.0678 11.1159 84.096 11.5668C85.1374 12.0045 86.0403 12.6145 86.8049 13.397C87.5826 14.1662 88.189 15.0746 88.624 16.1223C89.0722 17.1568 89.2963 18.2641 89.2963 19.4444V39.8148Z" fill="#0B4056"/>
    </g>
    <defs>
        <filter id="filter0_d_64_2" x="0" y="0" width="112" height="58" filterUnits="userSpaceOnUse" color-interpolation-filters="sRGB">
            <feFlood flood-opacity="0" result="BackgroundImageFix"/>
            <feColorMatrix in="SourceAlpha" type="matrix" values="0 0 0 0 0 0 0 0 0 0 0 0 0 0 0 0 0 0 127 0" result="hardAlpha"/>
            <feOffset dy="4"/>
            <feGaussianBlur stdDeviation="2"/>
            <feComposite in2="hardAlpha" operator="out"/>
            <feColorMatrix type="matrix" values="0 0 0 0 0 0 0 0 0 0 0 0 0 0 0 0 0 0 0.25 0"/>
            <feBlend mode="normal" in2="BackgroundImageFix" result="effect1_dropShadow_64_2"/>
            <feBlend mode="normal" in="SourceGraphic" in2="effect1_dropShadow_64_2" result="shape"/>
        </filter>
        <linearGradient id="paint0_linear_64_2" x1="56" y1="0" x2="56" y2="50" gradientUnits="userSpaceOnUse">
            <stop offset="0.49" stop-color="white"/>
            <stop offset="0.51" stop-color="#DDDDDD"/>
        </linearGradient>
    </defs>
</svg>